<svg width="18" height="18" viewBox="0 0 18 18" fill="none" xmlns="http://www.w3.org/2000/svg">
  <rect width="18" height="18" rx="9" fill="#3F062A"/>
  <path d="M12.5516 5.97745C12.6028 5.92523 12.6639 5.88374 12.7313 5.85541C12.7987 5.82709 12.8711 5.8125 12.9442 5.8125C13.0174 5.8125 13.0898 5.82709 13.1572 5.85541C13.2246 5.88374 13.2857 5.92523 13.3369 5.97745C13.5514 6.1942 13.5544 6.54445 13.3444 6.76495L8.90962 12.0075C8.85927 12.0627 8.79817 12.1072 8.73005 12.138C8.66194 12.1689 8.58824 12.1856 8.51347 12.187C8.43871 12.1884 8.36444 12.1745 8.29521 12.1462C8.22599 12.1179 8.16326 12.0758 8.11087 12.0225L5.41237 9.28795C5.3083 9.18181 5.25 9.0391 5.25 8.89045C5.25 8.7418 5.3083 8.59909 5.41237 8.49295C5.46355 8.44072 5.52464 8.39924 5.59206 8.37091C5.65948 8.34259 5.73187 8.328 5.80499 8.328C5.87812 8.328 5.95051 8.34259 6.01793 8.37091C6.08535 8.39924 6.14643 8.44072 6.19762 8.49295L8.48662 10.8127L12.5366 5.99395L12.5516 5.97745Z" fill="white"/>
</svg>
